<svg width="70" height="54" viewBox="0 0 70 54" fill="none" xmlns="http://www.w3.org/2000/svg">
<path d="M24.5947 1.08789C25.1256 2.06642 25.6879 3.20176 26.0801 4.14551L26.3809 4.86914L27.1543 4.75098C32.323 3.9597 37.5753 3.95878 42.8584 4.75098L43.624 4.86621L43.9268 4.15332C44.3245 3.21673 44.8675 2.0637 45.3867 1.08887C50.0273 1.93873 54.4724 3.35311 58.6348 5.24609C66.2816 16.5826 70.0692 29.3229 68.7324 43.9785C63.1309 48.0516 57.7024 50.59 52.3428 52.3037C51.3395 50.8703 50.4116 49.378 49.5732 47.8271C51.2338 47.1554 52.8278 46.3751 54.3691 45.4727C55.1403 45.0213 55.1672 43.9466 54.4805 43.4346L53.9502 43.0283C53.7751 42.8906 53.602 42.7511 53.4326 42.6113L53.4268 42.6064L53.4199 42.6006C53.0708 42.322 52.5803 42.2461 52.1475 42.4482V42.4473C41.0947 47.562 28.9971 47.564 17.8037 42.4453L17.7969 42.4424L17.6367 42.3838C17.3122 42.2902 16.9575 42.3337 16.6631 42.5146L16.5244 42.6143C16.1882 42.8919 15.8334 43.1687 15.4766 43.4365C14.7739 43.9632 14.8443 45.0337 15.5947 45.4727L15.6016 45.4766C17.1379 46.359 18.732 47.152 20.3965 47.8311C19.5717 49.3822 18.6418 50.8723 17.623 52.3047C12.2871 50.591 6.85786 48.0528 1.25586 43.9795C0.136638 31.2814 2.58099 18.441 11.3408 5.24902C15.5075 3.35203 19.9545 1.9358 24.5947 1.08789ZM23.3916 21.3193C19.2256 21.3194 16.1006 25.055 16.1006 29.3857C16.1007 33.7224 19.286 37.4521 23.3916 37.4521C27.4273 37.4521 30.4865 33.9464 30.6738 29.79L30.6826 29.3857C30.7372 25.0694 27.574 21.3193 23.3916 21.3193ZM46.6514 21.3193C42.4852 21.3193 39.3604 25.0549 39.3604 29.3857C39.3604 33.7225 42.5458 37.4521 46.6514 37.4521C50.7168 37.4521 53.7483 33.9432 53.9336 29.7891L53.9424 29.3857C53.9969 25.0694 50.8339 21.3193 46.6514 21.3193Z" stroke="#9FA0A2" stroke-width="2"/>
</svg>
