<svg width="71" height="72" viewBox="0 0 71 72" fill="none" xmlns="http://www.w3.org/2000/svg">
<path d="M35.5 1.5C54.2992 1.5 69.5 16.9678 69.5 36C69.5 55.0322 54.2992 70.5 35.5 70.5C16.7008 70.5 1.5 55.0322 1.5 36C1.5 16.9678 16.7008 1.5 35.5 1.5Z" stroke="#909293" stroke-width="3"/>
<path fill-rule="evenodd" clip-rule="evenodd" d="M34.934 18.8871C31.9904 21.7223 29.3535 24.0432 29.0747 24.046C28.7958 24.0488 26.939 22.3838 24.9489 20.3455C21.4198 16.7321 18.9265 15.6147 18.9265 17.6484C18.9265 18.2034 23.9297 23.9144 30.0447 30.3398L41.1629 42.0232V48.0641V54.105L35.8086 48.8072C30.6581 43.7095 30.2689 43.5084 25.5798 43.5084H20.7045L20.9741 35.9036C21.2261 28.7638 21.3772 28.2681 23.4414 27.7826L25.6401 27.2666L23.2413 25.9824C19.1016 23.7671 18 25.7063 18 35.2077C18 46.1694 18.0667 46.288 24.1928 46.288C28.4734 46.288 29.6649 46.6836 31.8626 48.8359C40.7358 57.5266 41.0332 57.7407 42.5147 56.5112C43.444 55.7403 43.9425 53.7474 43.9425 50.8075C43.9425 48.3217 44.3112 46.288 44.7615 46.288C45.2118 46.288 47.0964 47.9668 48.9503 50.0181C51.6354 52.9904 52.4359 53.4472 52.8899 52.2659C53.4791 50.7297 52.132 49.1222 38.0999 34.625L30.8471 27.1304L35.7734 22.3773L40.6997 17.6252L40.9674 26.0612C41.1453 31.6583 41.6994 35.1559 42.6139 36.4548C43.8591 38.2236 43.9675 37.2479 43.7359 26.379C43.4236 11.7196 42.8687 11.248 34.934 18.8871Z" fill="#909293"/>
<line x1="45.7311" y1="45.3177" x2="59.7311" y2="60.3177" stroke="#909293" stroke-width="2"/>
</svg>
