<svg width="71" height="73" viewBox="0 0 71 73" fill="none" xmlns="http://www.w3.org/2000/svg">
<path d="M51.3117 31.7734C53.597 33.2026 54.7397 33.9172 55.101 34.8434C55.3774 35.5521 55.3743 36.3394 55.0923 37.0459C54.7237 37.9692 53.5754 38.6747 51.2789 40.0858L31.6479 52.1481C29.1517 53.6819 27.9037 54.4487 26.8721 54.329C26.0844 54.2377 25.3649 53.8381 24.8709 53.2177C24.2241 52.4053 24.2154 50.9405 24.198 48.0108L24.0528 23.5814C24.035 20.5921 24.0262 19.0975 24.6749 18.2732C25.17 17.6441 25.8961 17.239 26.6915 17.148C27.7336 17.0288 29.0009 17.8213 31.5355 19.4063L51.3117 31.7734Z" stroke="#8C8D8F" stroke-width="3"/>
<path d="M35.5 71.5C16.6798 71.5 1.5 55.7868 1.5 36.5C1.5 17.2132 16.6798 1.5 35.5 1.5C54.3202 1.5 69.5 17.2132 69.5 36.5C69.5 55.7868 54.3202 71.5 35.5 71.5Z" stroke="#9B9B9D" stroke-width="3"/>
</svg>
