<svg width="78" height="58" viewBox="0 0 78 58" fill="none" xmlns="http://www.w3.org/2000/svg">
<path d="M40.0611 25.0768C42.2687 26.5124 43.3724 27.2302 43.7199 28.1482C43.9859 28.851 43.9784 29.628 43.699 30.3256C43.334 31.2368 42.2166 31.9332 39.9819 33.3262L8.98342 52.6477C6.46614 54.2167 5.2075 55.0012 4.16925 54.8834C3.37664 54.7935 2.65247 54.3917 2.15681 53.7667C1.50754 52.948 1.50728 51.4649 1.50678 48.4986L1.50002 9.01472C1.4995 5.98839 1.49924 4.47523 2.15975 3.65223C2.66375 3.02426 3.39903 2.62524 4.20023 2.54494C5.25024 2.43969 6.51877 3.26461 9.05585 4.91444L40.0611 25.0768Z" stroke="#8C8D8F" stroke-width="3"/>
<rect x="54.1332" y="1.68713" width="7" height="54" rx="3.5" stroke="black" stroke-width="2"/>
<rect x="54.1332" y="1.68713" width="7" height="54" rx="3.5" stroke="#8C8D8F" stroke-width="2"/>
<rect x="69.1332" y="1.68713" width="7" height="54" rx="3.5" stroke="black" stroke-width="2"/>
<rect x="69.1332" y="1.68713" width="7" height="54" rx="3.5" stroke="#8C8D8F" stroke-width="2"/>
</svg>
