<svg width="71" height="73" viewBox="0 0 71 73" fill="none" xmlns="http://www.w3.org/2000/svg">
<path d="M19.6883 41.2266C17.403 39.7974 16.2603 39.0828 15.899 38.1566C15.6226 37.4479 15.6257 36.6606 15.9077 35.9541C16.2763 35.0308 17.4246 34.3253 19.7211 32.9142L39.3521 20.8519C41.8483 19.3181 43.0963 18.5513 44.1279 18.671C44.9156 18.7623 45.6351 19.1619 46.1291 19.7823C46.7759 20.5947 46.7846 22.0595 46.802 24.9892L46.9472 49.4186C46.965 52.4079 46.9738 53.9025 46.3251 54.7268C45.83 55.3559 45.1039 55.761 44.3085 55.852C43.2664 55.9712 41.9991 55.1787 39.4645 53.5937L19.6883 41.2266Z" stroke="#8C8D8F" stroke-width="3"/>
<path d="M35.5 1.5C54.3202 1.5 69.5 17.2132 69.5 36.5C69.5 55.7868 54.3202 71.5 35.5 71.5C16.6798 71.5 1.5 55.7868 1.5 36.5C1.5 17.2132 16.6798 1.5 35.5 1.5Z" stroke="#9B9B9D" stroke-width="3"/>
</svg>
