<svg width="48" height="48" viewBox="0 0 48 48" fill="none" xmlns="http://www.w3.org/2000/svg">
<path d="M11.5 46.5H36.5M9.5 36.5H38.5C41.3002 36.5 42.7005 36.5 43.77 35.955C44.7108 35.4757 45.4757 34.7107 45.955 33.77C46.5 32.7005 46.5 31.3003 46.5 28.5V9.5C46.5 6.69975 46.5 5.2996 45.955 4.23005C45.4757 3.28923 44.7108 2.52432 43.77 2.04497C42.7005 1.5 41.3002 1.5 38.5 1.5H9.5C6.69975 1.5 5.2996 1.5 4.23005 2.04497C3.28923 2.52432 2.52432 3.28923 2.04497 4.23005C1.5 5.2996 1.5 6.69972 1.5 9.5V28.5C1.5 31.3003 1.5 32.7005 2.04497 33.77C2.52432 34.7107 3.28923 35.4757 4.23005 35.955C5.2996 36.5 6.69972 36.5 9.5 36.5Z" stroke="#9FA0A2" stroke-width="3" stroke-linecap="round" stroke-linejoin="round"/>
</svg>
