<svg width="63" height="51" viewBox="0 0 63 51" fill="none" xmlns="http://www.w3.org/2000/svg">
<path d="M47.25 0C38.7074 0 31.7486 6.59184 31.5205 14.7772L21.887 28.0563C21.1731 27.9259 20.4401 27.8438 19.6875 27.8438C17.1982 27.8438 14.8933 28.5975 12.9866 29.8707L0 24.917V38.5274L8.15186 41.6371C9.30021 46.766 14.0305 50.625 19.6875 50.625C25.472 50.625 30.2775 46.588 31.2847 41.2861L46.4399 30.3354C46.7097 30.3488 46.9768 30.375 47.25 30.375C55.9361 30.375 63 23.5634 63 15.1875C63 6.81159 55.9361 0 47.25 0ZM47.25 5.0625C53.0408 5.0625 57.75 9.60356 57.75 15.1875C57.75 20.7714 53.0408 25.3125 47.25 25.3125C41.4592 25.3125 36.75 20.7714 36.75 15.1875C36.75 9.60356 41.4592 5.0625 47.25 5.0625ZM47.25 7.59375C45.1614 7.59375 43.1584 8.3938 41.6815 9.81791C40.2047 11.242 39.375 13.1735 39.375 15.1875C39.375 17.2015 40.2047 19.133 41.6815 20.5571C43.1584 21.9812 45.1614 22.7812 47.25 22.7812C49.3386 22.7812 51.3416 21.9812 52.8185 20.5571C54.2953 19.133 55.125 17.2015 55.125 15.1875C55.125 13.1735 54.2953 11.242 52.8185 9.81791C51.3416 8.3938 49.3386 7.59375 47.25 7.59375ZM19.6875 30.375C24.7537 30.375 28.875 34.3491 28.875 39.2344C28.875 44.1197 24.7537 48.0938 19.6875 48.0938C15.9566 48.0938 12.7526 45.9305 11.3152 42.8434L17.2727 45.1176C18.0655 45.4213 18.8791 45.5674 19.6824 45.5674C22.2969 45.5674 24.7701 44.0536 25.7886 41.5679C27.1247 38.3177 25.4728 34.6371 22.1023 33.3512L16.1243 31.0671C17.2203 30.6209 18.4249 30.375 19.6875 30.375Z" fill="#9FA0A2"/>
</svg>
